HIERARCHY
ROOT Hips
{
  OFFSET 0.112003 -0.384080 -0.034731
  CHANNELS 3 Xposition Yposition Zposition
  JOINT Spine
  {
    OFFSET 0.229163 -21.884771 -2.579355
    CHANNELS 3 Xrotation Yrotation Zrotation
    JOINT Neck
    {
      OFFSET 0.229163 -21.884773 -2.579355
      CHANNELS 3 Xrotation Yrotation Zrotation
      JOINT Head
      {
        OFFSET -1.999791 -14.302311 -26.659847
        CHANNELS 3 Xrotation Yrotation Zrotation
        JOINT HeadTop
        {
          OFFSET 0.000000 15.000000 0.000000
          CHANNELS 3 Xrotation Yrotation Zrotation
        }
      }
      JOINT LeftShoulder
      {
        OFFSET 17.607569 3.280582 -1.087431
        CHANNELS 3 Xrotation Yrotation Zrotation
        JOINT LeftElbow
        {
          OFFSET 7.688892 20.184778 -5.054370
          CHANNELS 3 Xrotation Yrotation Zrotation
          JOINT LeftWrist
          {
            OFFSET 0.410223 21.106676 -1.003931
            CHANNELS 3 Xrotation Yrotation Zrotation
          }
        }
      }
      JOINT RightShoulder
      {
        OFFSET -17.607569 -3.280579 1.087430
        CHANNELS 3 Xrotation Yrotation Zrotation
        JOINT RightElbow
        {
          OFFSET -3.826374 29.005507 -8.061146
          CHANNELS 3 Xrotation Yrotation Zrotation
          JOINT RightWrist
          {
            OFFSET -1.973433 19.636284 -13.001321
            CHANNELS 3 Xrotation Yrotation Zrotation
          }
        }
      }
    }
  }
  JOINT LeftHip
  {
    OFFSET 10.151835 0.755726 3.626931
    CHANNELS 3 Xrotation Yrotation Zrotation
    JOINT LeftKnee
    {
      OFFSET -2.692991 38.493591 -9.213785
      CHANNELS 3 Xrotation Yrotation Zrotation
      JOINT LeftAnkle
      {
        OFFSET 2.345379 30.621975 10.852774
        CHANNELS 3 Xrotation Yrotation Zrotation
      }
    }
  }
  JOINT RightHip
  {
    OFFSET -10.151835 -0.755726 -3.626931
    CHANNELS 3 Xrotation Yrotation Zrotation
    JOINT RightKnee
    {
      OFFSET 8.400380 33.543720 -11.991464
      CHANNELS 3 Xrotation Yrotation Zrotation
      JOINT RightAnkle
      {
        OFFSET -7.804983 34.162872 15.695636
        CHANNELS 3 Xrotation Yrotation Zrotation
      }
    }
  }
}
MOTION
Frames: 10
Frame Time: 0.033333
0.112003 -0.384080 -0.034731 0.000000 0.000000 0.000000 0.000000 0.000000 0.000000 0.000000 0.000000 0.000000 0.000000 0.000000 0.000000 0.000000 0.000000 0.000000 0.000000 0.000000 0.000000 0.000000 0.000000 0.000000 0.000000 0.000000 0.000000 0.000000 0.000000 0.000000 0.000000 0.000000 0.000000 0.000000 0.000000 0.000000 0.000000 0.000000 0.000000 0.000000 0.000000 0.000000 0.000000 0.000000 0.000000 0.000000 0.000000 0.000000 0.000000 0.000000 0.000000
0.114152 -0.384474 -0.027031 1.643285 0.058664 -0.312816 1.643285 0.058664 -0.312816 0.930613 -0.192058 0.031525 -0.022665 0.019997 -0.305618 1.135569 -0.282107 0.625205 -1.815710 0.396851 5.686420 -0.022666 0.020002 -0.305617 0.276362 0.237591 0.731349 -3.068181 -1.872238 -2.216540 0.095197 -0.297828 -0.203134 6.417784 0.330073 -0.627825 6.873389 -0.014477 -1.237437 0.095331 -0.298247 -0.203420 0.686074 -0.197444 -0.074202 1.266463 0.525372 -0.494881 0.000000 0.000000 0.000000
0.116606 -0.384841 -0.027007 2.056755 0.107296 -0.629716 2.056755 0.107296 -0.629716 1.178202 -0.286775 0.062163 -0.032521 0.099901 -0.221904 1.883189 -0.141712 2.462693 -1.362679 0.204661 2.992341 -0.032628 0.100228 -0.222622 1.884658 0.463814 0.832728 4.018950 -1.150183 -2.517008 0.138284 -0.696207 -0.238712 8.093428 0.443937 -0.687277 6.927276 -0.103790 -1.035264 0.138333 -0.696450 -0.238796 0.379119 -0.096277 -0.004089 -0.605816 0.121563 -0.572775 0.000000 0.000000 0.000000
0.122492 -0.384986 -0.023925 1.908228 0.069386 -0.366233 1.908228 0.069386 -0.366233 1.815166 0.334585 -0.307816 -0.030380 0.189725 0.078238 2.796388 0.046820 4.916366 -0.205158 0.076082 1.460140 -0.030787 0.192287 0.079317 2.277386 1.083199 3.070771 3.836089 -1.019667 -2.268081 0.169001 -0.942827 -0.271631 6.771709 0.267981 -1.124877 7.558729 -0.336323 -0.597398 0.169102 -0.943385 -0.271792 -1.319421 0.433684 0.274261 -2.063028 -0.070779 -0.906446 0.000000 0.000000 0.000000
0.131044 -0.384767 -0.023048 1.890886 0.077841 -0.430806 1.890886 0.077841 -0.430806 2.198519 0.616796 -0.479254 -0.046793 0.337820 0.249142 3.176651 0.089751 5.828595 0.585796 0.071353 1.948631 -0.046844 0.338192 0.249413 3.652502 1.325037 3.495091 4.185669 -0.046861 -0.749405 0.172423 -0.924447 -0.284856 6.115231 0.170642 -1.374251 6.973749 -0.412685 -0.315225 0.172459 -0.924633 -0.284916 -1.279822 0.486236 0.442976 -2.132817 0.012017 -1.132894 0.000000 0.000000 0.000000
0.161796 -0.384489 -0.016942 2.553374 0.197118 -1.211803 2.553375 0.197118 -1.211802 2.376824 0.765187 -0.566919 -0.170568 0.808042 -0.290765 4.516843 -1.311160 1.922801 1.620982 -0.286333 -7.631002 -0.170612 0.808253 -0.290828 3.287315 1.217830 3.202332 -0.013329 -0.246815 -0.370533 0.320879 -1.278656 -0.615693 8.107904 0.295373 -1.590985 8.762211 -0.414282 -0.624582 0.320910 -1.278773 -0.615752 5.848740 -1.167536 0.911871 2.384613 1.388109 -1.718297 0.000000 0.000000 0.000000
0.170531 -0.381811 -0.019259 2.815354 0.211084 -1.270439 2.815354 0.211083 -1.270438 2.289154 1.170760 -0.768785 -0.196793 0.864051 -0.515586 5.046744 -1.872850 0.149870 6.816300 0.006589 -11.575764 -0.196831 0.864214 -0.515680 3.357406 1.378300 3.830439 0.564571 0.636234 0.885692 0.332003 -1.284445 -0.644737 7.869627 0.254650 -1.716684 6.129273 -0.408534 -0.169304 0.332034 -1.284559 -0.644797 6.204216 -1.174721 1.189499 1.133945 1.303911 -2.201246 0.000000 0.000000 0.000000
0.177314 -0.383247 -0.014586 -1.777640 0.082649 -0.990806 -1.777640 0.082649 -0.990806 2.855816 1.487136 -0.963082 -0.034905 0.121123 -0.196270 -6.508133 -0.794523 -10.687223 -53.582146 -4.771809 -10.455806 -0.035033 0.121572 -0.196966 1.177910 1.189364 3.894599 -17.120338 1.294078 3.570830 0.337701 -1.340761 -0.648171 7.524588 0.291599 -1.331860 4.871409 -0.404896 0.064099 0.337730 -1.340873 -0.648226 3.608382 -0.068913 2.559931 -1.240299 0.978586 -2.811145 0.000000 0.000000 0.000000
0.181948 -0.385217 -0.013637 -1.970986 0.073003 -0.931702 -1.970824 0.072999 -0.931626 3.176670 1.642073 -1.059153 -0.054625 0.349121 0.160451 -8.496236 -0.867268 -12.668778 -58.651333 -2.331843 -5.777337 -0.054623 0.349117 0.160459 2.177973 1.390447 4.313838 -14.425479 0.593405 2.538650 0.360648 -1.356281 -0.707213 8.232119 0.359191 -1.265240 5.321558 -0.417431 0.006677 0.360678 -1.356388 -0.707271 5.595196 -0.301421 3.556550 -0.438796 1.124435 -2.678782 0.000000 0.000000 0.000000
0.195071 -0.383896 -0.004224 -2.692300 0.064231 -0.981312 -2.692300 0.064231 -0.981313 3.013014 1.814174 -1.136956 -0.270211 1.471429 0.049859 -10.408090 1.800313 -6.371686 -35.180233 -3.357597 -10.992875 -0.270209 1.471429 0.049872 0.727120 0.978855 3.270317 -24.402004 1.492039 4.295066 0.418463 -1.303565 -0.875847 7.862044 0.254528 -1.713638 4.855326 -0.487135 0.271242 0.418495 -1.303662 -0.875913 0.819691 0.828653 2.941509 -0.977103 1.294266 -3.356628 0.000000 0.000000 0.000000
